<svg xmlns="http://www.w3.org/2000/svg" width="276.814" height="100.002" viewBox="0 0 276.814 100.002">
  <g id="ryl-logo" transform="translate(-129.885 -192.492)">
    <path id="Path_1" data-name="Path 1" d="M253.427,250.543H254.6l16.029-16.176V208.522L254.6,192.492H200.289v30.256l-31.354-30.239H146.993l-14.8,12.024-2.31,19.732,11.008,17.986-11.008,17.986,2.31,19.732,14.8,12.024h21.943l31.354-30.239v30.739h17.354V250.543h16.665l21.765,41.949h19.411Zm-90.969,25.4h-9.766l-5.314-4.318-.906-7.743,8.111-13.254,5.128-8.377-5.128-8.378-8.111-13.253.906-7.744,5.314-4.318h9.766l34.934,33.693Zm90.821-47.753-6.764,6.765H217.643V208.08h28.872l6.764,6.617Z" fill="#1a171b"/>
    <g id="Group_4" data-name="Group 4" transform="translate(290.495 192.492)">
      <g id="Group_1" data-name="Group 1">
        <path id="Path_2" data-name="Path 2" d="M485.59,221.7l-5.455-10.1h-4.768v10.1h-7.732v-29.21h20.233l4.939,4.94v9.236l-4.467,4.467,5.885,10.567Zm-10.223-16.925h8.72l.989-.988V200.31l-.989-.945h-8.72Z" transform="translate(-467.634 -192.492)" fill="#1a171b"/>
        <path id="Path_3" data-name="Path 3" d="M557.457,192.492V215.9l-5.8,5.8H538.3l-5.8-5.8V192.492h7.732v20.532l1.8,1.8h5.885l2.148-2.148V192.492Z" transform="translate(-501.654 -192.492)" fill="#1a171b"/>
        <path id="Path_4" data-name="Path 4" d="M623.775,192.492V221.7h-6.358l-11.941-17.226V221.7h-7.388v-29.21h7.173l11.125,16.022V192.492Z" transform="translate(-536.053 -192.492)" fill="#1a171b"/>
      </g>
      <g id="Group_2" data-name="Group 2" transform="translate(0 35.055)">
        <path id="Path_5" data-name="Path 5" d="M493.064,266.209l-11.34,15.249v13.961h-2.792V281.458l-11.3-15.249h3.351l9.493,12.844,9.407-12.844Z" transform="translate(-467.634 -266.209)" fill="#1a171b"/>
        <path id="Path_6" data-name="Path 6" d="M553.863,271.793v18.041l-5.585,5.585H535.736l-5.585-5.585V271.793l5.585-5.584h12.543Zm-2.836,17.1V272.738l-3.995-3.994H536.938l-3.994,3.994v16.151l3.994,3.995h10.095Z" transform="translate(-500.422 -266.209)" fill="#1a171b"/>
        <path id="Path_7" data-name="Path 7" d="M618.846,266.209v23.625l-5.541,5.585H602.136l-5.584-5.585V266.209h2.792v22.68l3.995,3.995h8.72l4.124-4.124V266.209Z" transform="translate(-535.248 -266.209)" fill="#1a171b"/>
        <path id="Path_8" data-name="Path 8" d="M682.389,295.419l-7.044-12.5H664.39v12.5H661.6v-29.21h18.041l4.511,4.51v7.688l-4.511,4.51H678.48l7.088,12.5Zm-18-15.035h14.047l2.921-2.921v-5.8l-2.921-2.921H664.39Z" transform="translate(-569.362 -266.209)" fill="#1a171b"/>
      </g>
      <g id="Group_3" data-name="Group 3" transform="translate(0 70.79)">
        <path id="Path_9" data-name="Path 9" d="M490.058,363.7v6.873H467.634v-29.21h7.732V363.7Z" transform="translate(-467.634 -341.358)" fill="#1a171b"/>
        <path id="Path_10" data-name="Path 10" d="M535.9,348.231V363.7h5.154v6.873H523.014V363.7h5.154V348.231h-5.154v-6.873h18.041v6.873Z" transform="translate(-496.679 -341.358)" fill="#1a171b"/>
        <path id="Path_11" data-name="Path 11" d="M580.705,348.231V353h14.261v6.873H580.705v10.7h-7.732v-29.21h24.141v6.873Z" transform="translate(-522.881 -341.358)" fill="#1a171b"/>
        <path id="Path_12" data-name="Path 12" d="M641.775,348.231V352.7h14.261v6.529H641.775V363.7h16.409v6.873H634.043v-29.21h24.141v6.873Z" transform="translate(-554.911 -341.358)" fill="#1a171b"/>
      </g>
    </g>
  </g>
</svg>